M48
;DRILL file {Pcbnew (2012-apr-16-27)-stable} date lun 21 jul 2014 18:32:50 ART
;FORMAT={-:-/ absolute / inch / decimal}
FMAT,2
INCH,TZ
T1C0.040
%
G90
G05
M72
T1
X6.700Y-1.950
X6.700Y-2.050
X7.000Y-1.900
X7.050Y-2.300
X7.050Y-2.400
X7.050Y-2.500
X7.100Y-1.900
X7.200Y-1.900
X7.400Y-2.900
X7.400Y-3.000
X7.400Y-3.100
X7.550Y-2.250
X7.550Y-2.350
X7.800Y-2.250
X7.800Y-2.350
X7.950Y-2.900
X7.950Y-3.000
X7.950Y-3.100
X8.100Y-1.900
X8.250Y-2.300
X8.250Y-2.400
X8.250Y-2.500
X8.300Y-1.900
T0
M30
