G04 (created by PCBNEW-RS274X (2012-apr-16-27)-stable) date lun 21 jul 2014 18:32:57 ART*
G01*
G70*
G90*
%MOIN*%
G04 Gerber Fmt 3.4, Leading zero omitted, Abs format*
%FSLAX34Y34*%
G04 APERTURE LIST*
%ADD10C,0.006000*%
%ADD11C,0.012000*%
%ADD12C,0.070000*%
%ADD13R,0.070000X0.070000*%
%ADD14R,0.060000X0.060000*%
%ADD15C,0.060000*%
%ADD16C,0.023700*%
%ADD17C,0.010000*%
G04 APERTURE END LIST*
G54D10*
G54D11*
X84095Y-27500D02*
X84095Y-27786D01*
X84324Y-27443D02*
X83524Y-27643D01*
X84324Y-27843D01*
X84324Y-28043D02*
X83524Y-28043D01*
X84324Y-28300D02*
X83905Y-28300D01*
X83829Y-28271D01*
X83790Y-28214D01*
X83790Y-28129D01*
X83829Y-28071D01*
X83867Y-28043D01*
X84324Y-28843D02*
X83905Y-28843D01*
X83829Y-28814D01*
X83790Y-28757D01*
X83790Y-28643D01*
X83829Y-28586D01*
X84286Y-28843D02*
X84324Y-28786D01*
X84324Y-28643D01*
X84286Y-28586D01*
X84210Y-28557D01*
X84133Y-28557D01*
X84057Y-28586D01*
X84019Y-28643D01*
X84019Y-28786D01*
X83981Y-28843D01*
X83790Y-29043D02*
X83790Y-29272D01*
X84324Y-29129D02*
X83638Y-29129D01*
X83562Y-29157D01*
X83524Y-29215D01*
X83524Y-29272D01*
X84324Y-29472D02*
X83790Y-29472D01*
X83524Y-29472D02*
X83562Y-29443D01*
X83600Y-29472D01*
X83562Y-29500D01*
X83524Y-29472D01*
X83600Y-29472D01*
X69585Y-29248D02*
X69614Y-29286D01*
X69700Y-29324D01*
X69757Y-29324D01*
X69842Y-29286D01*
X69900Y-29210D01*
X69928Y-29133D01*
X69957Y-28981D01*
X69957Y-28867D01*
X69928Y-28714D01*
X69900Y-28638D01*
X69842Y-28562D01*
X69757Y-28524D01*
X69700Y-28524D01*
X69614Y-28562D01*
X69585Y-28600D01*
X69014Y-29324D02*
X69357Y-29324D01*
X69185Y-29324D02*
X69185Y-28524D01*
X69242Y-28638D01*
X69300Y-28714D01*
X69357Y-28752D01*
X68386Y-28524D02*
X68043Y-28524D01*
X68214Y-29324D02*
X68214Y-28524D01*
X67557Y-29324D02*
X67843Y-29324D01*
X67843Y-28524D01*
X67100Y-28790D02*
X67100Y-29324D01*
X67243Y-28486D02*
X67386Y-29057D01*
X67014Y-29057D01*
X70242Y-30564D02*
X70242Y-29764D01*
X70014Y-29764D01*
X69956Y-29802D01*
X69928Y-29840D01*
X69899Y-29916D01*
X69899Y-30030D01*
X69928Y-30107D01*
X69956Y-30145D01*
X70014Y-30183D01*
X70242Y-30183D01*
X69556Y-30564D02*
X69614Y-30526D01*
X69642Y-30488D01*
X69671Y-30411D01*
X69671Y-30183D01*
X69642Y-30107D01*
X69614Y-30069D01*
X69556Y-30030D01*
X69471Y-30030D01*
X69414Y-30069D01*
X69385Y-30107D01*
X69356Y-30183D01*
X69356Y-30411D01*
X69385Y-30488D01*
X69414Y-30526D01*
X69471Y-30564D01*
X69556Y-30564D01*
X69013Y-30564D02*
X69071Y-30526D01*
X69099Y-30450D01*
X69099Y-29764D01*
X68699Y-30564D02*
X68757Y-30526D01*
X68785Y-30450D01*
X68785Y-29764D01*
X68471Y-30564D02*
X68471Y-30030D01*
X68471Y-29764D02*
X68500Y-29802D01*
X68471Y-29840D01*
X68443Y-29802D01*
X68471Y-29764D01*
X68471Y-29840D01*
X68271Y-30030D02*
X68042Y-30030D01*
X68185Y-29764D02*
X68185Y-30450D01*
X68157Y-30526D01*
X68099Y-30564D01*
X68042Y-30564D01*
X67899Y-30030D02*
X67585Y-30030D01*
X67899Y-30564D01*
X67585Y-30564D01*
X67128Y-30526D02*
X67185Y-30564D01*
X67299Y-30564D01*
X67356Y-30526D01*
X67385Y-30450D01*
X67385Y-30145D01*
X67356Y-30069D01*
X67299Y-30030D01*
X67185Y-30030D01*
X67128Y-30069D01*
X67099Y-30145D01*
X67099Y-30221D01*
X67385Y-30297D01*
X66842Y-30564D02*
X66842Y-30030D01*
X66842Y-30183D02*
X66814Y-30107D01*
X66785Y-30069D01*
X66728Y-30030D01*
X66671Y-30030D01*
X70428Y-31728D02*
X70457Y-31766D01*
X70543Y-31804D01*
X70600Y-31804D01*
X70685Y-31766D01*
X70743Y-31690D01*
X70771Y-31613D01*
X70800Y-31461D01*
X70800Y-31347D01*
X70771Y-31194D01*
X70743Y-31118D01*
X70685Y-31042D01*
X70600Y-31004D01*
X70543Y-31004D01*
X70457Y-31042D01*
X70428Y-31080D01*
X69914Y-31804D02*
X69914Y-31385D01*
X69943Y-31309D01*
X70000Y-31270D01*
X70114Y-31270D01*
X70171Y-31309D01*
X69914Y-31766D02*
X69971Y-31804D01*
X70114Y-31804D01*
X70171Y-31766D01*
X70200Y-31690D01*
X70200Y-31613D01*
X70171Y-31537D01*
X70114Y-31499D01*
X69971Y-31499D01*
X69914Y-31461D01*
X69628Y-31804D02*
X69628Y-31270D01*
X69628Y-31423D02*
X69600Y-31347D01*
X69571Y-31309D01*
X69514Y-31270D01*
X69457Y-31270D01*
X69257Y-31804D02*
X69257Y-31004D01*
X69257Y-31309D02*
X69200Y-31270D01*
X69086Y-31270D01*
X69029Y-31309D01*
X69000Y-31347D01*
X68971Y-31423D01*
X68971Y-31651D01*
X69000Y-31728D01*
X69029Y-31766D01*
X69086Y-31804D01*
X69200Y-31804D01*
X69257Y-31766D01*
X68457Y-31804D02*
X68457Y-31385D01*
X68486Y-31309D01*
X68543Y-31270D01*
X68657Y-31270D01*
X68714Y-31309D01*
X68457Y-31766D02*
X68514Y-31804D01*
X68657Y-31804D01*
X68714Y-31766D01*
X68743Y-31690D01*
X68743Y-31613D01*
X68714Y-31537D01*
X68657Y-31499D01*
X68514Y-31499D01*
X68457Y-31461D01*
X68085Y-31804D02*
X68143Y-31766D01*
X68171Y-31690D01*
X68171Y-31004D01*
X67771Y-31804D02*
X67829Y-31766D01*
X67857Y-31690D01*
X67857Y-31004D01*
X67315Y-31766D02*
X67372Y-31804D01*
X67486Y-31804D01*
X67543Y-31766D01*
X67572Y-31690D01*
X67572Y-31385D01*
X67543Y-31309D01*
X67486Y-31270D01*
X67372Y-31270D01*
X67315Y-31309D01*
X67286Y-31385D01*
X67286Y-31461D01*
X67572Y-31537D01*
X66772Y-31804D02*
X66772Y-31004D01*
X66772Y-31766D02*
X66829Y-31804D01*
X66943Y-31804D01*
X67001Y-31766D01*
X67029Y-31728D01*
X67058Y-31651D01*
X67058Y-31423D01*
X67029Y-31347D01*
X67001Y-31309D01*
X66943Y-31270D01*
X66829Y-31270D01*
X66772Y-31309D01*
X66229Y-31804D02*
X66229Y-31385D01*
X66258Y-31309D01*
X66315Y-31270D01*
X66429Y-31270D01*
X66486Y-31309D01*
X66229Y-31766D02*
X66286Y-31804D01*
X66429Y-31804D01*
X66486Y-31766D01*
X66515Y-31690D01*
X66515Y-31613D01*
X66486Y-31537D01*
X66429Y-31499D01*
X66286Y-31499D01*
X66229Y-31461D01*
X76128Y-28905D02*
X75928Y-28905D01*
X75842Y-29324D02*
X76128Y-29324D01*
X76128Y-28524D01*
X75842Y-28524D01*
X75814Y-30488D02*
X75843Y-30526D01*
X75929Y-30564D01*
X75986Y-30564D01*
X76071Y-30526D01*
X76129Y-30450D01*
X76157Y-30373D01*
X76186Y-30221D01*
X76186Y-30107D01*
X76157Y-29954D01*
X76129Y-29878D01*
X76071Y-29802D01*
X75986Y-29764D01*
X75929Y-29764D01*
X75843Y-29802D01*
X75814Y-29840D01*
X75957Y-31385D02*
X75871Y-31423D01*
X75843Y-31461D01*
X75814Y-31537D01*
X75814Y-31651D01*
X75843Y-31728D01*
X75871Y-31766D01*
X75929Y-31804D01*
X76157Y-31804D01*
X76157Y-31004D01*
X75957Y-31004D01*
X75900Y-31042D01*
X75871Y-31080D01*
X75843Y-31156D01*
X75843Y-31232D01*
X75871Y-31309D01*
X75900Y-31347D01*
X75957Y-31385D01*
X76157Y-31385D01*
X71843Y-22562D02*
X71900Y-22524D01*
X71986Y-22524D01*
X72071Y-22562D01*
X72129Y-22638D01*
X72157Y-22714D01*
X72186Y-22867D01*
X72186Y-22981D01*
X72157Y-23133D01*
X72129Y-23210D01*
X72071Y-23286D01*
X71986Y-23324D01*
X71929Y-23324D01*
X71843Y-23286D01*
X71814Y-23248D01*
X71814Y-22981D01*
X71929Y-22981D01*
X72157Y-24564D02*
X72157Y-23764D01*
X72014Y-23764D01*
X71929Y-23802D01*
X71871Y-23878D01*
X71843Y-23954D01*
X71814Y-24107D01*
X71814Y-24221D01*
X71843Y-24373D01*
X71871Y-24450D01*
X71929Y-24526D01*
X72014Y-24564D01*
X72157Y-24564D01*
X72171Y-25766D02*
X72085Y-25804D01*
X71942Y-25804D01*
X71885Y-25766D01*
X71856Y-25728D01*
X71828Y-25651D01*
X71828Y-25575D01*
X71856Y-25499D01*
X71885Y-25461D01*
X71942Y-25423D01*
X72056Y-25385D01*
X72114Y-25347D01*
X72142Y-25309D01*
X72171Y-25232D01*
X72171Y-25156D01*
X72142Y-25080D01*
X72114Y-25042D01*
X72056Y-25004D01*
X71914Y-25004D01*
X71828Y-25042D01*
G54D12*
X70500Y-23000D03*
X70500Y-24000D03*
G54D13*
X70500Y-25000D03*
G54D12*
X74000Y-29000D03*
X74000Y-30000D03*
G54D13*
X74000Y-31000D03*
G54D12*
X82500Y-23000D03*
X82500Y-24000D03*
G54D13*
X82500Y-25000D03*
G54D12*
X79500Y-29000D03*
X79500Y-30000D03*
G54D13*
X79500Y-31000D03*
G54D14*
X70000Y-19000D03*
G54D15*
X71000Y-19000D03*
X72000Y-19000D03*
G54D14*
X81000Y-19000D03*
G54D15*
X82000Y-19000D03*
X83000Y-19000D03*
G54D14*
X67000Y-19500D03*
G54D15*
X67000Y-20500D03*
G54D14*
X75500Y-22500D03*
G54D15*
X75500Y-23500D03*
G54D14*
X78000Y-22500D03*
G54D15*
X78000Y-23500D03*
G54D16*
X78000Y-29500D02*
X78500Y-30000D01*
X78000Y-23500D02*
X78000Y-29500D01*
X83000Y-22500D02*
X82500Y-23000D01*
X83000Y-19000D02*
X83000Y-22500D01*
X79500Y-31000D02*
X81500Y-31000D01*
X81500Y-31000D02*
X82500Y-30000D01*
X78500Y-30000D02*
X79500Y-30000D01*
X84500Y-18500D02*
X84500Y-22500D01*
X83500Y-17500D02*
X84500Y-18500D01*
X83000Y-24000D02*
X82500Y-24000D01*
X84500Y-22500D02*
X83000Y-24000D01*
X70000Y-19000D02*
X70000Y-18000D01*
X66000Y-22000D02*
X66000Y-20500D01*
X70500Y-17500D02*
X74000Y-17500D01*
X74000Y-17500D02*
X79500Y-17500D01*
X79500Y-17500D02*
X80500Y-17500D01*
X80500Y-17500D02*
X81000Y-18000D01*
X81000Y-18000D02*
X81000Y-19000D01*
X82500Y-30000D02*
X82500Y-25000D01*
X70500Y-25000D02*
X70500Y-29000D01*
X70500Y-29000D02*
X72500Y-31000D01*
X70000Y-18000D02*
X70500Y-17500D01*
X80500Y-17500D02*
X83500Y-17500D01*
X78000Y-22500D02*
X78000Y-19000D01*
X78000Y-19000D02*
X79500Y-17500D01*
X75500Y-22500D02*
X75500Y-19000D01*
X75500Y-19000D02*
X74000Y-17500D01*
X66000Y-20500D02*
X67000Y-19500D01*
X68000Y-19500D02*
X68500Y-19000D01*
X68500Y-19000D02*
X70000Y-19000D01*
X67000Y-19500D02*
X68000Y-19500D01*
X72500Y-31000D02*
X74000Y-31000D01*
X75500Y-23500D02*
X75500Y-29500D01*
X75500Y-29500D02*
X75000Y-30000D01*
X72000Y-19500D02*
X72000Y-20000D01*
X72000Y-20000D02*
X70500Y-21500D01*
X70500Y-21500D02*
X70500Y-23000D01*
X72000Y-19000D02*
X72000Y-19500D01*
X75000Y-30000D02*
X74000Y-30000D01*
X70500Y-24000D02*
X68000Y-24000D01*
X68000Y-24000D02*
X66000Y-22000D01*
G54D10*
G36*
X71632Y-19848D02*
X70240Y-21240D01*
X70160Y-21359D01*
X70132Y-21500D01*
X70132Y-22521D01*
X69992Y-22661D01*
X69901Y-22881D01*
X69901Y-23119D01*
X69992Y-23339D01*
X70153Y-23500D01*
X70021Y-23632D01*
X68152Y-23632D01*
X66368Y-21847D01*
X66368Y-20652D01*
X66451Y-20569D01*
X66451Y-20609D01*
X66535Y-20811D01*
X66689Y-20965D01*
X66891Y-21049D01*
X67109Y-21049D01*
X67311Y-20965D01*
X67465Y-20811D01*
X67549Y-20609D01*
X67549Y-20391D01*
X67465Y-20189D01*
X67325Y-20049D01*
X67349Y-20049D01*
X67441Y-20011D01*
X67511Y-19941D01*
X67541Y-19868D01*
X68000Y-19868D01*
X68141Y-19840D01*
X68260Y-19760D01*
X68652Y-19368D01*
X69458Y-19368D01*
X69489Y-19441D01*
X69559Y-19511D01*
X69650Y-19549D01*
X69749Y-19549D01*
X70349Y-19549D01*
X70441Y-19511D01*
X70511Y-19441D01*
X70549Y-19350D01*
X70549Y-19325D01*
X70689Y-19465D01*
X70891Y-19549D01*
X71109Y-19549D01*
X71311Y-19465D01*
X71465Y-19311D01*
X71500Y-19226D01*
X71535Y-19311D01*
X71632Y-19408D01*
X71632Y-19500D01*
X71632Y-19848D01*
X71632Y-19848D01*
G37*
G54D17*
X71632Y-19848D02*
X70240Y-21240D01*
X70160Y-21359D01*
X70132Y-21500D01*
X70132Y-22521D01*
X69992Y-22661D01*
X69901Y-22881D01*
X69901Y-23119D01*
X69992Y-23339D01*
X70153Y-23500D01*
X70021Y-23632D01*
X68152Y-23632D01*
X66368Y-21847D01*
X66368Y-20652D01*
X66451Y-20569D01*
X66451Y-20609D01*
X66535Y-20811D01*
X66689Y-20965D01*
X66891Y-21049D01*
X67109Y-21049D01*
X67311Y-20965D01*
X67465Y-20811D01*
X67549Y-20609D01*
X67549Y-20391D01*
X67465Y-20189D01*
X67325Y-20049D01*
X67349Y-20049D01*
X67441Y-20011D01*
X67511Y-19941D01*
X67541Y-19868D01*
X68000Y-19868D01*
X68141Y-19840D01*
X68260Y-19760D01*
X68652Y-19368D01*
X69458Y-19368D01*
X69489Y-19441D01*
X69559Y-19511D01*
X69650Y-19549D01*
X69749Y-19549D01*
X70349Y-19549D01*
X70441Y-19511D01*
X70511Y-19441D01*
X70549Y-19350D01*
X70549Y-19325D01*
X70689Y-19465D01*
X70891Y-19549D01*
X71109Y-19549D01*
X71311Y-19465D01*
X71465Y-19311D01*
X71500Y-19226D01*
X71535Y-19311D01*
X71632Y-19408D01*
X71632Y-19500D01*
X71632Y-19848D01*
G54D10*
G36*
X75175Y-23049D02*
X75035Y-23189D01*
X74951Y-23391D01*
X74951Y-23609D01*
X75035Y-23811D01*
X75132Y-23908D01*
X75132Y-29348D01*
X74848Y-29632D01*
X74479Y-29632D01*
X74347Y-29500D01*
X74508Y-29339D01*
X74599Y-29119D01*
X74599Y-28881D01*
X74508Y-28661D01*
X74339Y-28492D01*
X74119Y-28401D01*
X73881Y-28401D01*
X73661Y-28492D01*
X73492Y-28661D01*
X73401Y-28881D01*
X73401Y-29119D01*
X73492Y-29339D01*
X73653Y-29500D01*
X73492Y-29661D01*
X73401Y-29881D01*
X73401Y-30119D01*
X73492Y-30339D01*
X73567Y-30414D01*
X73509Y-30439D01*
X73439Y-30509D01*
X73401Y-30600D01*
X73401Y-30632D01*
X72652Y-30632D01*
X72610Y-30589D01*
X72610Y-26350D01*
X72610Y-22010D01*
X71390Y-22010D01*
X71390Y-26350D01*
X72610Y-26350D01*
X72610Y-30589D01*
X71224Y-29203D01*
X71224Y-28010D01*
X70868Y-28010D01*
X70868Y-25599D01*
X70899Y-25599D01*
X70991Y-25561D01*
X71061Y-25491D01*
X71099Y-25400D01*
X71099Y-25301D01*
X71099Y-24601D01*
X71061Y-24509D01*
X70991Y-24439D01*
X70932Y-24414D01*
X71008Y-24339D01*
X71099Y-24119D01*
X71099Y-23881D01*
X71008Y-23661D01*
X70847Y-23500D01*
X71008Y-23339D01*
X71099Y-23119D01*
X71099Y-22881D01*
X71008Y-22661D01*
X70868Y-22521D01*
X70868Y-21652D01*
X72260Y-20260D01*
X72340Y-20141D01*
X72367Y-20000D01*
X72368Y-20000D01*
X72368Y-19500D01*
X72368Y-19408D01*
X72465Y-19311D01*
X72549Y-19109D01*
X72549Y-18891D01*
X72465Y-18689D01*
X72311Y-18535D01*
X72109Y-18451D01*
X71891Y-18451D01*
X71689Y-18535D01*
X71535Y-18689D01*
X71500Y-18773D01*
X71465Y-18689D01*
X71311Y-18535D01*
X71109Y-18451D01*
X70891Y-18451D01*
X70689Y-18535D01*
X70549Y-18675D01*
X70549Y-18651D01*
X70511Y-18559D01*
X70441Y-18489D01*
X70368Y-18458D01*
X70368Y-18152D01*
X70652Y-17868D01*
X73848Y-17868D01*
X75132Y-19152D01*
X75132Y-21958D01*
X75059Y-21989D01*
X74989Y-22059D01*
X74951Y-22150D01*
X74951Y-22249D01*
X74951Y-22849D01*
X74989Y-22941D01*
X75059Y-23011D01*
X75150Y-23049D01*
X75175Y-23049D01*
X75175Y-23049D01*
G37*
G54D17*
X75175Y-23049D02*
X75035Y-23189D01*
X74951Y-23391D01*
X74951Y-23609D01*
X75035Y-23811D01*
X75132Y-23908D01*
X75132Y-29348D01*
X74848Y-29632D01*
X74479Y-29632D01*
X74347Y-29500D01*
X74508Y-29339D01*
X74599Y-29119D01*
X74599Y-28881D01*
X74508Y-28661D01*
X74339Y-28492D01*
X74119Y-28401D01*
X73881Y-28401D01*
X73661Y-28492D01*
X73492Y-28661D01*
X73401Y-28881D01*
X73401Y-29119D01*
X73492Y-29339D01*
X73653Y-29500D01*
X73492Y-29661D01*
X73401Y-29881D01*
X73401Y-30119D01*
X73492Y-30339D01*
X73567Y-30414D01*
X73509Y-30439D01*
X73439Y-30509D01*
X73401Y-30600D01*
X73401Y-30632D01*
X72652Y-30632D01*
X72610Y-30589D01*
X72610Y-26350D01*
X72610Y-22010D01*
X71390Y-22010D01*
X71390Y-26350D01*
X72610Y-26350D01*
X72610Y-30589D01*
X71224Y-29203D01*
X71224Y-28010D01*
X70868Y-28010D01*
X70868Y-25599D01*
X70899Y-25599D01*
X70991Y-25561D01*
X71061Y-25491D01*
X71099Y-25400D01*
X71099Y-25301D01*
X71099Y-24601D01*
X71061Y-24509D01*
X70991Y-24439D01*
X70932Y-24414D01*
X71008Y-24339D01*
X71099Y-24119D01*
X71099Y-23881D01*
X71008Y-23661D01*
X70847Y-23500D01*
X71008Y-23339D01*
X71099Y-23119D01*
X71099Y-22881D01*
X71008Y-22661D01*
X70868Y-22521D01*
X70868Y-21652D01*
X72260Y-20260D01*
X72340Y-20141D01*
X72367Y-20000D01*
X72368Y-20000D01*
X72368Y-19500D01*
X72368Y-19408D01*
X72465Y-19311D01*
X72549Y-19109D01*
X72549Y-18891D01*
X72465Y-18689D01*
X72311Y-18535D01*
X72109Y-18451D01*
X71891Y-18451D01*
X71689Y-18535D01*
X71535Y-18689D01*
X71500Y-18773D01*
X71465Y-18689D01*
X71311Y-18535D01*
X71109Y-18451D01*
X70891Y-18451D01*
X70689Y-18535D01*
X70549Y-18675D01*
X70549Y-18651D01*
X70511Y-18559D01*
X70441Y-18489D01*
X70368Y-18458D01*
X70368Y-18152D01*
X70652Y-17868D01*
X73848Y-17868D01*
X75132Y-19152D01*
X75132Y-21958D01*
X75059Y-21989D01*
X74989Y-22059D01*
X74951Y-22150D01*
X74951Y-22249D01*
X74951Y-22849D01*
X74989Y-22941D01*
X75059Y-23011D01*
X75150Y-23049D01*
X75175Y-23049D01*
G54D10*
G36*
X82632Y-22348D02*
X82579Y-22401D01*
X82381Y-22401D01*
X82161Y-22492D01*
X81992Y-22661D01*
X81901Y-22881D01*
X81901Y-23119D01*
X81992Y-23339D01*
X82153Y-23500D01*
X81992Y-23661D01*
X81901Y-23881D01*
X81901Y-24119D01*
X81992Y-24339D01*
X82067Y-24414D01*
X82009Y-24439D01*
X81939Y-24509D01*
X81901Y-24600D01*
X81901Y-24699D01*
X81901Y-25399D01*
X81939Y-25491D01*
X82009Y-25561D01*
X82100Y-25599D01*
X82132Y-25599D01*
X82132Y-29848D01*
X81348Y-30632D01*
X80099Y-30632D01*
X80099Y-30601D01*
X80061Y-30509D01*
X79991Y-30439D01*
X79932Y-30414D01*
X80008Y-30339D01*
X80099Y-30119D01*
X80099Y-29881D01*
X80008Y-29661D01*
X79847Y-29500D01*
X80008Y-29339D01*
X80099Y-29119D01*
X80099Y-28881D01*
X80008Y-28661D01*
X79839Y-28492D01*
X79619Y-28401D01*
X79381Y-28401D01*
X79161Y-28492D01*
X78992Y-28661D01*
X78901Y-28881D01*
X78901Y-29119D01*
X78992Y-29339D01*
X79153Y-29500D01*
X79021Y-29632D01*
X78652Y-29632D01*
X78368Y-29348D01*
X78368Y-23908D01*
X78465Y-23811D01*
X78549Y-23609D01*
X78549Y-23391D01*
X78465Y-23189D01*
X78325Y-23049D01*
X78349Y-23049D01*
X78441Y-23011D01*
X78511Y-22941D01*
X78549Y-22850D01*
X78549Y-22751D01*
X78549Y-22151D01*
X78511Y-22059D01*
X78441Y-21989D01*
X78368Y-21958D01*
X78368Y-19152D01*
X79652Y-17868D01*
X80348Y-17868D01*
X80632Y-18152D01*
X80632Y-18458D01*
X80559Y-18489D01*
X80489Y-18559D01*
X80451Y-18650D01*
X80451Y-18749D01*
X80451Y-19349D01*
X80489Y-19441D01*
X80559Y-19511D01*
X80650Y-19549D01*
X80749Y-19549D01*
X81349Y-19549D01*
X81441Y-19511D01*
X81511Y-19441D01*
X81549Y-19350D01*
X81549Y-19325D01*
X81689Y-19465D01*
X81891Y-19549D01*
X82109Y-19549D01*
X82311Y-19465D01*
X82465Y-19311D01*
X82500Y-19226D01*
X82535Y-19311D01*
X82632Y-19408D01*
X82632Y-22348D01*
X82632Y-22348D01*
G37*
G54D17*
X82632Y-22348D02*
X82579Y-22401D01*
X82381Y-22401D01*
X82161Y-22492D01*
X81992Y-22661D01*
X81901Y-22881D01*
X81901Y-23119D01*
X81992Y-23339D01*
X82153Y-23500D01*
X81992Y-23661D01*
X81901Y-23881D01*
X81901Y-24119D01*
X81992Y-24339D01*
X82067Y-24414D01*
X82009Y-24439D01*
X81939Y-24509D01*
X81901Y-24600D01*
X81901Y-24699D01*
X81901Y-25399D01*
X81939Y-25491D01*
X82009Y-25561D01*
X82100Y-25599D01*
X82132Y-25599D01*
X82132Y-29848D01*
X81348Y-30632D01*
X80099Y-30632D01*
X80099Y-30601D01*
X80061Y-30509D01*
X79991Y-30439D01*
X79932Y-30414D01*
X80008Y-30339D01*
X80099Y-30119D01*
X80099Y-29881D01*
X80008Y-29661D01*
X79847Y-29500D01*
X80008Y-29339D01*
X80099Y-29119D01*
X80099Y-28881D01*
X80008Y-28661D01*
X79839Y-28492D01*
X79619Y-28401D01*
X79381Y-28401D01*
X79161Y-28492D01*
X78992Y-28661D01*
X78901Y-28881D01*
X78901Y-29119D01*
X78992Y-29339D01*
X79153Y-29500D01*
X79021Y-29632D01*
X78652Y-29632D01*
X78368Y-29348D01*
X78368Y-23908D01*
X78465Y-23811D01*
X78549Y-23609D01*
X78549Y-23391D01*
X78465Y-23189D01*
X78325Y-23049D01*
X78349Y-23049D01*
X78441Y-23011D01*
X78511Y-22941D01*
X78549Y-22850D01*
X78549Y-22751D01*
X78549Y-22151D01*
X78511Y-22059D01*
X78441Y-21989D01*
X78368Y-21958D01*
X78368Y-19152D01*
X79652Y-17868D01*
X80348Y-17868D01*
X80632Y-18152D01*
X80632Y-18458D01*
X80559Y-18489D01*
X80489Y-18559D01*
X80451Y-18650D01*
X80451Y-18749D01*
X80451Y-19349D01*
X80489Y-19441D01*
X80559Y-19511D01*
X80650Y-19549D01*
X80749Y-19549D01*
X81349Y-19549D01*
X81441Y-19511D01*
X81511Y-19441D01*
X81549Y-19350D01*
X81549Y-19325D01*
X81689Y-19465D01*
X81891Y-19549D01*
X82109Y-19549D01*
X82311Y-19465D01*
X82465Y-19311D01*
X82500Y-19226D01*
X82535Y-19311D01*
X82632Y-19408D01*
X82632Y-22348D01*
G54D10*
G36*
X84132Y-22348D02*
X82913Y-23566D01*
X82847Y-23500D01*
X83008Y-23339D01*
X83099Y-23119D01*
X83099Y-22921D01*
X83260Y-22760D01*
X83340Y-22641D01*
X83368Y-22500D01*
X83368Y-19408D01*
X83465Y-19311D01*
X83549Y-19109D01*
X83549Y-18891D01*
X83465Y-18689D01*
X83311Y-18535D01*
X83109Y-18451D01*
X82891Y-18451D01*
X82689Y-18535D01*
X82535Y-18689D01*
X82500Y-18773D01*
X82465Y-18689D01*
X82311Y-18535D01*
X82109Y-18451D01*
X81891Y-18451D01*
X81689Y-18535D01*
X81549Y-18675D01*
X81549Y-18651D01*
X81511Y-18559D01*
X81441Y-18489D01*
X81368Y-18458D01*
X81368Y-18000D01*
X81341Y-17868D01*
X83348Y-17868D01*
X84132Y-18652D01*
X84132Y-22348D01*
X84132Y-22348D01*
G37*
G54D17*
X84132Y-22348D02*
X82913Y-23566D01*
X82847Y-23500D01*
X83008Y-23339D01*
X83099Y-23119D01*
X83099Y-22921D01*
X83260Y-22760D01*
X83340Y-22641D01*
X83368Y-22500D01*
X83368Y-19408D01*
X83465Y-19311D01*
X83549Y-19109D01*
X83549Y-18891D01*
X83465Y-18689D01*
X83311Y-18535D01*
X83109Y-18451D01*
X82891Y-18451D01*
X82689Y-18535D01*
X82535Y-18689D01*
X82500Y-18773D01*
X82465Y-18689D01*
X82311Y-18535D01*
X82109Y-18451D01*
X81891Y-18451D01*
X81689Y-18535D01*
X81549Y-18675D01*
X81549Y-18651D01*
X81511Y-18559D01*
X81441Y-18489D01*
X81368Y-18458D01*
X81368Y-18000D01*
X81341Y-17868D01*
X83348Y-17868D01*
X84132Y-18652D01*
X84132Y-22348D01*
G54D10*
G36*
X85450Y-32450D02*
X84870Y-32450D01*
X84870Y-29924D01*
X84870Y-27075D01*
X84868Y-27075D01*
X84868Y-22500D01*
X84868Y-18500D01*
X84840Y-18359D01*
X84760Y-18240D01*
X83760Y-17240D01*
X83641Y-17160D01*
X83500Y-17132D01*
X80500Y-17132D01*
X79500Y-17132D01*
X74000Y-17132D01*
X70500Y-17132D01*
X70359Y-17160D01*
X70240Y-17240D01*
X69740Y-17740D01*
X69660Y-17859D01*
X69632Y-18000D01*
X69632Y-18458D01*
X69559Y-18489D01*
X69489Y-18559D01*
X69458Y-18632D01*
X68500Y-18632D01*
X68359Y-18660D01*
X68240Y-18740D01*
X67848Y-19132D01*
X67541Y-19132D01*
X67511Y-19059D01*
X67441Y-18989D01*
X67350Y-18951D01*
X67251Y-18951D01*
X66651Y-18951D01*
X66559Y-18989D01*
X66489Y-19059D01*
X66451Y-19150D01*
X66451Y-19249D01*
X66451Y-19529D01*
X65740Y-20240D01*
X65660Y-20359D01*
X65632Y-20500D01*
X65632Y-22000D01*
X65660Y-22141D01*
X65740Y-22260D01*
X67739Y-24260D01*
X67740Y-24260D01*
X67859Y-24340D01*
X68000Y-24368D01*
X70021Y-24368D01*
X70067Y-24414D01*
X70009Y-24439D01*
X69939Y-24509D01*
X69901Y-24600D01*
X69901Y-24699D01*
X69901Y-25399D01*
X69939Y-25491D01*
X70009Y-25561D01*
X70100Y-25599D01*
X70132Y-25599D01*
X70132Y-28010D01*
X65776Y-28010D01*
X65776Y-32350D01*
X71224Y-32350D01*
X71224Y-30244D01*
X72239Y-31260D01*
X72240Y-31260D01*
X72359Y-31340D01*
X72500Y-31368D01*
X73401Y-31368D01*
X73401Y-31399D01*
X73439Y-31491D01*
X73509Y-31561D01*
X73600Y-31599D01*
X73699Y-31599D01*
X74399Y-31599D01*
X74491Y-31561D01*
X74561Y-31491D01*
X74599Y-31400D01*
X74599Y-31301D01*
X74599Y-30601D01*
X74561Y-30509D01*
X74491Y-30439D01*
X74432Y-30414D01*
X74479Y-30368D01*
X75000Y-30368D01*
X75141Y-30340D01*
X75260Y-30260D01*
X75390Y-30130D01*
X75390Y-32350D01*
X76610Y-32350D01*
X76610Y-28010D01*
X75868Y-28010D01*
X75868Y-23908D01*
X75965Y-23811D01*
X76049Y-23609D01*
X76049Y-23391D01*
X75965Y-23189D01*
X75825Y-23049D01*
X75849Y-23049D01*
X75941Y-23011D01*
X76011Y-22941D01*
X76049Y-22850D01*
X76049Y-22751D01*
X76049Y-22151D01*
X76011Y-22059D01*
X75941Y-21989D01*
X75868Y-21958D01*
X75868Y-19000D01*
X75840Y-18859D01*
X75760Y-18740D01*
X74888Y-17868D01*
X78612Y-17868D01*
X77740Y-18740D01*
X77660Y-18859D01*
X77632Y-19000D01*
X77632Y-21958D01*
X77559Y-21989D01*
X77489Y-22059D01*
X77451Y-22150D01*
X77451Y-22249D01*
X77451Y-22849D01*
X77489Y-22941D01*
X77559Y-23011D01*
X77650Y-23049D01*
X77675Y-23049D01*
X77535Y-23189D01*
X77451Y-23391D01*
X77451Y-23609D01*
X77535Y-23811D01*
X77632Y-23908D01*
X77632Y-29500D01*
X77660Y-29641D01*
X77740Y-29760D01*
X78240Y-30260D01*
X78359Y-30340D01*
X78500Y-30368D01*
X79021Y-30368D01*
X79067Y-30414D01*
X79009Y-30439D01*
X78939Y-30509D01*
X78901Y-30600D01*
X78901Y-30699D01*
X78901Y-31399D01*
X78939Y-31491D01*
X79009Y-31561D01*
X79100Y-31599D01*
X79199Y-31599D01*
X79899Y-31599D01*
X79991Y-31561D01*
X80061Y-31491D01*
X80099Y-31400D01*
X80099Y-31368D01*
X81500Y-31368D01*
X81641Y-31340D01*
X81760Y-31260D01*
X82760Y-30260D01*
X82840Y-30141D01*
X82868Y-30000D01*
X82868Y-25599D01*
X82899Y-25599D01*
X82991Y-25561D01*
X83061Y-25491D01*
X83099Y-25400D01*
X83099Y-25301D01*
X83099Y-24601D01*
X83061Y-24509D01*
X82991Y-24439D01*
X82932Y-24414D01*
X82979Y-24368D01*
X83000Y-24368D01*
X83141Y-24340D01*
X83260Y-24260D01*
X84760Y-22760D01*
X84840Y-22641D01*
X84867Y-22500D01*
X84868Y-22500D01*
X84868Y-27075D01*
X83010Y-27075D01*
X83010Y-29924D01*
X84870Y-29924D01*
X84870Y-32450D01*
X65550Y-32450D01*
X65550Y-16550D01*
X85450Y-16550D01*
X85450Y-32450D01*
X85450Y-32450D01*
G37*
G54D17*
X85450Y-32450D02*
X84870Y-32450D01*
X84870Y-29924D01*
X84870Y-27075D01*
X84868Y-27075D01*
X84868Y-22500D01*
X84868Y-18500D01*
X84840Y-18359D01*
X84760Y-18240D01*
X83760Y-17240D01*
X83641Y-17160D01*
X83500Y-17132D01*
X80500Y-17132D01*
X79500Y-17132D01*
X74000Y-17132D01*
X70500Y-17132D01*
X70359Y-17160D01*
X70240Y-17240D01*
X69740Y-17740D01*
X69660Y-17859D01*
X69632Y-18000D01*
X69632Y-18458D01*
X69559Y-18489D01*
X69489Y-18559D01*
X69458Y-18632D01*
X68500Y-18632D01*
X68359Y-18660D01*
X68240Y-18740D01*
X67848Y-19132D01*
X67541Y-19132D01*
X67511Y-19059D01*
X67441Y-18989D01*
X67350Y-18951D01*
X67251Y-18951D01*
X66651Y-18951D01*
X66559Y-18989D01*
X66489Y-19059D01*
X66451Y-19150D01*
X66451Y-19249D01*
X66451Y-19529D01*
X65740Y-20240D01*
X65660Y-20359D01*
X65632Y-20500D01*
X65632Y-22000D01*
X65660Y-22141D01*
X65740Y-22260D01*
X67739Y-24260D01*
X67740Y-24260D01*
X67859Y-24340D01*
X68000Y-24368D01*
X70021Y-24368D01*
X70067Y-24414D01*
X70009Y-24439D01*
X69939Y-24509D01*
X69901Y-24600D01*
X69901Y-24699D01*
X69901Y-25399D01*
X69939Y-25491D01*
X70009Y-25561D01*
X70100Y-25599D01*
X70132Y-25599D01*
X70132Y-28010D01*
X65776Y-28010D01*
X65776Y-32350D01*
X71224Y-32350D01*
X71224Y-30244D01*
X72239Y-31260D01*
X72240Y-31260D01*
X72359Y-31340D01*
X72500Y-31368D01*
X73401Y-31368D01*
X73401Y-31399D01*
X73439Y-31491D01*
X73509Y-31561D01*
X73600Y-31599D01*
X73699Y-31599D01*
X74399Y-31599D01*
X74491Y-31561D01*
X74561Y-31491D01*
X74599Y-31400D01*
X74599Y-31301D01*
X74599Y-30601D01*
X74561Y-30509D01*
X74491Y-30439D01*
X74432Y-30414D01*
X74479Y-30368D01*
X75000Y-30368D01*
X75141Y-30340D01*
X75260Y-30260D01*
X75390Y-30130D01*
X75390Y-32350D01*
X76610Y-32350D01*
X76610Y-28010D01*
X75868Y-28010D01*
X75868Y-23908D01*
X75965Y-23811D01*
X76049Y-23609D01*
X76049Y-23391D01*
X75965Y-23189D01*
X75825Y-23049D01*
X75849Y-23049D01*
X75941Y-23011D01*
X76011Y-22941D01*
X76049Y-22850D01*
X76049Y-22751D01*
X76049Y-22151D01*
X76011Y-22059D01*
X75941Y-21989D01*
X75868Y-21958D01*
X75868Y-19000D01*
X75840Y-18859D01*
X75760Y-18740D01*
X74888Y-17868D01*
X78612Y-17868D01*
X77740Y-18740D01*
X77660Y-18859D01*
X77632Y-19000D01*
X77632Y-21958D01*
X77559Y-21989D01*
X77489Y-22059D01*
X77451Y-22150D01*
X77451Y-22249D01*
X77451Y-22849D01*
X77489Y-22941D01*
X77559Y-23011D01*
X77650Y-23049D01*
X77675Y-23049D01*
X77535Y-23189D01*
X77451Y-23391D01*
X77451Y-23609D01*
X77535Y-23811D01*
X77632Y-23908D01*
X77632Y-29500D01*
X77660Y-29641D01*
X77740Y-29760D01*
X78240Y-30260D01*
X78359Y-30340D01*
X78500Y-30368D01*
X79021Y-30368D01*
X79067Y-30414D01*
X79009Y-30439D01*
X78939Y-30509D01*
X78901Y-30600D01*
X78901Y-30699D01*
X78901Y-31399D01*
X78939Y-31491D01*
X79009Y-31561D01*
X79100Y-31599D01*
X79199Y-31599D01*
X79899Y-31599D01*
X79991Y-31561D01*
X80061Y-31491D01*
X80099Y-31400D01*
X80099Y-31368D01*
X81500Y-31368D01*
X81641Y-31340D01*
X81760Y-31260D01*
X82760Y-30260D01*
X82840Y-30141D01*
X82868Y-30000D01*
X82868Y-25599D01*
X82899Y-25599D01*
X82991Y-25561D01*
X83061Y-25491D01*
X83099Y-25400D01*
X83099Y-25301D01*
X83099Y-24601D01*
X83061Y-24509D01*
X82991Y-24439D01*
X82932Y-24414D01*
X82979Y-24368D01*
X83000Y-24368D01*
X83141Y-24340D01*
X83260Y-24260D01*
X84760Y-22760D01*
X84840Y-22641D01*
X84867Y-22500D01*
X84868Y-22500D01*
X84868Y-27075D01*
X83010Y-27075D01*
X83010Y-29924D01*
X84870Y-29924D01*
X84870Y-32450D01*
X65550Y-32450D01*
X65550Y-16550D01*
X85450Y-16550D01*
X85450Y-32450D01*
M02*
